# xmcd
#
# Track frame offsets:
#   150
#   16547
#   33661
#   48124
#   61001
#   82271
#   94474
#   111368
#   130500
#   142561
#   156313
#   170243
#   183170
#   197084
#   211574
#   228623
#   252040
#   265525
#   280673
#   292205
#
# Disc length: 4064 seconds
#
# Revision: 0
# Processed by: cddbd v1.5PL3 Copyright (c) Steve Scherf et al.
# Submitted via: uFREEDB ActiveX Control 1.5
#
DISCID=110fde14
DTITLE=Corpo e Alma - As 20 Mais
DYEAR=2003
DGENRE=Bandinha do Sul
TTITLE0=Aló meu amor
TTITLE1=Aquela dos olhos negros
TTITLE2=Mentiosa
TTITLE3=Catchaqueira
TTITLE4=Yo te amo
TTITLE5=Ela é Gostosa
TTITLE6=Eu te amo
TTITLE7=Nosso amor terminou
TTITLE8=Amor enrosca neu
TTITLE9=Rumo a São Paulo
TTITLE10=Meu Pensamento
TTITLE11=Eu vou embora
TTITLE12=Grandão
TTITLE13=Senhorita
TTITLE14=O Compadre
TTITLE15=Separação
TTITLE16=Assino em baixo
TTITLE17=Saudade de você
TTITLE18=Mulher Chorona
TTITLE19=Muito Obrigado
EXTD=
EXTT0=
EXTT1=
EXTT2=
EXTT3=
EXTT4=
EXTT5=
EXTT6=
EXTT7=
EXTT8=
EXTT9=
EXTT10=
EXTT11=
EXTT12=
EXTT13=
EXTT14=
EXTT15=
EXTT16=
EXTT17=
EXTT18=
EXTT19=
PLAYORDER=
